<?xml version="1.0" encoding="UTF-8" standalone="no"?>
<!DOCTYPE svg PUBLIC "-//W3C//DTD SVG 1.1//EN" "http://www.w3.org/Graphics/SVG/1.1/DTD/svg11.dtd">
<svg width="100%" height="100%" viewBox="0 0 512 512" version="1.1" xmlns="http://www.w3.org/2000/svg" xmlns:xlink="http://www.w3.org/1999/xlink"
    style="fill-rule:evenodd;clip-rule:evenodd;stroke-linejoin:round;stroke-miterlimit:1.41421;">
    <g id="Avatar-oscuro">
        <rect x="-0.612" y="0" width="512" height="512" style="fill:#18122b;" />
        <g id="coders-reducido-claro">
            <path d="M157.347,307.944c-16.944,0 -29.402,-9.549 -29.402,-40.845c0,-31.827 11.711,-43.762 29.651,-43.762c10.714,0 20.681,3.979 29.651,10.609l16.944,-25.196c-13.206,-11.67 -28.406,-17.77 -48.339,-17.77c-42.608,0 -69.02,32.092 -69.02,76.119c0,44.027 25.415,73.997 68.272,73.997c20.432,0 37.376,-7.956 49.087,-18.565l-17.442,-26.523c-9.469,6.896 -18.688,11.936 -29.402,11.936Z"
                style="fill:#fff;fill-rule:nonzero;" />
            <path d="M366.386,159.701c-45.598,0 -80.73,32.642 -80.73,90.449c0,59.302 33.388,90.946 80.232,90.946c26.661,0 45.349,-10.465 58.056,-23.421l-18.438,-23.671c-9.718,7.724 -20.183,15.448 -37.376,15.448c-23.671,0 -40.116,-17.691 -40.116,-59.302c0,-42.359 17.442,-60.05 39.369,-60.05c13.455,0 24.917,4.983 34.385,12.708l19.934,-24.17c-14.452,-11.96 -30.399,-18.937 -55.316,-18.937Z"
                style="fill:#fff;fill-rule:nonzero;" />
            <path d="M217.44,313.19c0,15.199 12.209,27.906 27.658,27.906c15.448,0 27.657,-12.707 27.657,-27.906c0,-14.951 -12.209,-27.658 -27.657,-27.658c-15.449,0 -27.658,12.707 -27.658,27.658Z"
                style="fill:#e6364b;fill-rule:nonzero;" />
        </g>
    </g>
</svg>