<?xml version="1.0" encoding="UTF-8" standalone="no"?>
<!DOCTYPE svg PUBLIC "-//W3C//DTD SVG 1.1//EN" "http://www.w3.org/Graphics/SVG/1.1/DTD/svg11.dtd">
<svg width="100%" height="100%" viewBox="0 0 272 147" version="1.1" xmlns="http://www.w3.org/2000/svg" xmlns:xlink="http://www.w3.org/1999/xlink"
    style="fill-rule:evenodd;clip-rule:evenodd;stroke-linejoin:round;stroke-miterlimit:1.41421;">
    <g id="coders-reducido-claro">
        <path d="M56.956,119.967c-13.664,0 -23.711,-7.7 -23.711,-32.938c0,-25.667 9.444,-35.291 23.912,-35.291c8.64,0 16.678,3.208 23.912,8.555l13.663,-20.319c-10.649,-9.411 -22.907,-14.331 -38.982,-14.331c-34.36,0 -55.66,25.881 -55.66,61.386c0,35.505 20.496,59.674 55.057,59.674c16.477,0 30.141,-6.417 39.585,-14.972l-14.065,-21.389c-7.636,5.561 -15.071,9.625 -23.711,9.625Z"
            style="fill:#fff;fill-rule:nonzero;" />
        <path d="M225.533,0.419c-36.772,0 -65.104,26.323 -65.104,72.941c0,47.824 26.926,73.343 64.702,73.343c21.501,0 36.571,-8.439 46.819,-18.888l-14.869,-19.089c-7.837,6.229 -16.277,12.458 -30.141,12.458c-19.09,0 -32.352,-14.267 -32.352,-47.824c0,-34.159 14.066,-48.426 31.749,-48.426c10.851,0 20.094,4.019 27.729,10.248l16.076,-19.491c-11.655,-9.645 -24.515,-15.272 -44.609,-15.272Z"
            style="fill:#fff;fill-rule:nonzero;" />
        <path d="M105.417,124.198c0,12.257 9.846,22.505 22.304,22.505c12.459,0 22.305,-10.248 22.305,-22.505c0,-12.057 -9.846,-22.304 -22.305,-22.304c-12.458,0 -22.304,10.247 -22.304,22.304Z"
            style="fill:#e6364b;fill-rule:nonzero;" />
    </g>
</svg>