<?xml version="1.0" encoding="UTF-8" standalone="no"?>
<!DOCTYPE svg PUBLIC "-//W3C//DTD SVG 1.1//EN" "http://www.w3.org/Graphics/SVG/1.1/DTD/svg11.dtd">
<svg width="100%" height="100%" viewBox="0 0 780 74" version="1.1" xmlns="http://www.w3.org/2000/svg" xmlns:xlink="http://www.w3.org/1999/xlink"
    style="fill-rule:evenodd;clip-rule:evenodd;stroke-linejoin:round;stroke-miterlimit:1.41421;">
    <g id="coders-oscuro">
        <g>
            <path d="M25.847,62.059c-6.087,0 -10.563,-3.43 -10.563,-14.673c0,-11.434 4.207,-15.722 10.652,-15.722c3.849,0 7.43,1.429 10.652,3.811l6.087,-9.051c-4.744,-4.193 -10.204,-6.384 -17.365,-6.384c-15.307,0 -24.796,11.529 -24.796,27.346c0,15.816 9.131,26.583 24.527,26.583c7.34,0 13.427,-2.858 17.634,-6.67l-6.266,-9.528c-3.401,2.478 -6.713,4.288 -10.562,4.288Z"
                style="fill:#19122c;fill-rule:nonzero;" />
            <path d="M71.32,20.04c-14.591,0 -23.095,10.862 -23.095,26.965c0,17.055 8.504,26.964 23.095,26.964c14.59,0 23.094,-10.1 23.094,-27.06c0,-16.198 -8.414,-26.869 -23.094,-26.869Zm0,11.148c5.818,0 8.503,4.764 8.503,15.721c0,11.339 -2.685,16.008 -8.503,16.008c-5.819,0 -8.504,-4.669 -8.504,-15.912c0,-11.053 2.685,-15.817 8.504,-15.817Z"
                style="fill:#19122c;fill-rule:nonzero;" />
            <path d="M127.892,0.031l0,24.773c-2.864,-3.144 -6.534,-4.764 -10.741,-4.764c-11.727,0 -18.977,11.243 -18.977,26.869c0,16.293 5.639,27.06 17.455,27.06c6.266,0 10.562,-3.239 13.158,-7.146l0.716,5.526l12.532,0l0,-70.698l-14.143,-1.62Zm-6.982,31.062c2.954,0 5.013,1.524 6.982,4.192l0,21.819c-2.059,3.621 -4.565,5.813 -7.787,5.813c-4.297,0 -7.341,-3.431 -7.341,-15.912c0,-11.339 3.223,-15.912 8.146,-15.912Z"
                style="fill:#19122c;fill-rule:nonzero;" />
            <path d="M163.25,51.483l30.793,0c0.179,-1.525 0.268,-3.716 0.268,-5.431c0,-16.293 -8.682,-26.012 -22.289,-26.012c-14.948,0 -23.184,12.101 -23.184,27.06c0,15.721 8.415,26.869 24.706,26.869c8.056,0 14.501,-2.858 18.977,-6.955l-5.639,-8.195c-3.76,2.573 -7.877,4.193 -12.174,4.193c-6.087,0 -10.473,-3.24 -11.458,-11.529Zm8.772,-21.343c5.998,0 8.415,4.859 8.504,12.196l-17.455,0c0.627,-8.385 3.939,-12.196 8.951,-12.196Z"
                style="fill:#19122c;fill-rule:nonzero;" />
            <path d="M237.367,20.23c-7.608,0 -12.8,4.193 -16.202,12.863l-2.506,-11.338l-17.097,0l0,10.005l6.266,0l0,30.49l-6.266,0l0,10.099l29.808,0l0,-10.099l-9.399,0l0,-14.483c2.148,-7.527 6.356,-13.149 11.726,-14.102l0,9.242l8.952,0l2.596,-21.152c-2.238,-0.953 -4.655,-1.525 -7.878,-1.525Z"
                style="fill:#19122c;fill-rule:nonzero;" />
            <path d="M270.308,63.202c-5.549,0 -10.294,-2.286 -13.964,-5.335l-7.071,8.48c4.833,4.573 11.905,7.622 21.125,7.622c12.084,0 22.468,-5.621 22.468,-16.769c0,-9.91 -5.998,-13.244 -15.217,-16.008c-9.31,-2.763 -11.19,-3.906 -11.19,-6.479c0,-2.668 2.149,-3.906 6.803,-3.906c4.566,0 9.22,1.715 13.159,4.287l5.639,-8.861c-4.654,-3.62 -10.741,-6.193 -19.245,-6.193c-13.338,0 -20.588,6.67 -20.588,15.721c0,8.957 5.997,12.959 14.68,15.436c9.488,2.763 11.279,4.002 11.279,7.241c0,3.24 -3.133,4.764 -7.878,4.764Z"
                style="fill:#19122c;fill-rule:nonzero;" />
        </g>
        <g>
            <path d="M361.139,8.803c-16.381,0 -29.002,11.726 -29.002,32.494c0,21.304 11.994,32.672 28.823,32.672c9.578,0 16.292,-3.759 20.857,-8.414l-6.624,-8.504c-3.491,2.775 -7.251,5.55 -13.427,5.55c-8.504,0 -14.412,-6.356 -14.412,-21.304c0,-15.218 6.266,-21.573 14.143,-21.573c4.834,0 8.951,1.79 12.353,4.565l7.161,-8.683c-5.192,-4.296 -10.921,-6.803 -19.872,-6.803Z"
                style="fill:#19122c;fill-rule:nonzero;" />
            <path d="M425.499,58.752l0,-18.619c0,-10.921 -6.624,-16.829 -20.767,-16.829c-5.281,0 -12.353,1.254 -18.529,3.581l3.222,9.399c4.745,-1.611 10.026,-2.506 13.069,-2.506c6.087,0 9.399,2.327 9.399,7.34l0,1.7l-6.355,0c-14.68,0 -23.184,5.908 -23.184,16.202c0,8.773 6.266,14.949 16.112,14.949c5.908,0 11.906,-2.059 15.576,-6.445c2.237,3.939 6.087,5.729 11.636,6.266l2.954,-9.309c-2.238,-0.806 -3.133,-2.149 -3.133,-5.729Zm-22.199,5.102c-4.028,0 -6.355,-2.148 -6.355,-5.818c0,-4.655 3.58,-7.161 11.457,-7.161l3.491,0l0,7.787c-1.79,3.312 -5.55,5.192 -8.593,5.192Z"
                style="fill:#19122c;fill-rule:nonzero;" />
            <path d="M435.614,72.447l14.144,0l0,-33.209c2.685,-3.402 5.281,-5.46 8.324,-5.46c3.491,0 4.566,1.969 4.566,7.877l0,30.792l14.143,0l0,-34.91c0,-9.041 -4.924,-14.233 -13.069,-14.233c-6.087,0 -10.563,2.328 -14.77,7.072l-0.985,-5.46l-12.353,0l0,47.531Z"
                style="fill:#19122c;fill-rule:nonzero;" />
            <path d="M528.53,69.672l-4.655,-9.04c-2.238,1.253 -5.013,2.148 -8.325,2.148c-4.744,0 -6.803,-1.79 -6.803,-6.535l0,-21.572l13.875,0l1.432,-9.757l-15.307,0l0,-11.995l-14.143,1.701l0,10.294l-9.936,0l0,9.757l9.936,0l0,21.572c0,10.921 5.908,17.724 18.35,17.724c6.535,0 11.816,-1.88 15.576,-4.297Z"
                style="fill:#19122c;fill-rule:nonzero;" />
            <path d="M575.882,58.752l0,-18.619c0,-10.921 -6.624,-16.829 -20.767,-16.829c-5.281,0 -12.353,1.254 -18.529,3.581l3.222,9.399c4.745,-1.611 10.026,-2.506 13.069,-2.506c6.087,0 9.399,2.327 9.399,7.34l0,1.7l-6.355,0c-14.68,0 -23.184,5.908 -23.184,16.202c0,8.773 6.266,14.949 16.112,14.949c5.908,0 11.905,-2.059 15.576,-6.445c2.237,3.939 6.086,5.729 11.636,6.266l2.954,-9.309c-2.238,-0.806 -3.133,-2.149 -3.133,-5.729Zm-22.199,5.102c-4.028,0 -6.356,-2.148 -6.356,-5.818c0,-4.655 3.581,-7.161 11.458,-7.161l3.491,0l0,7.787c-1.79,3.312 -5.55,5.192 -8.593,5.192Z"
                style="fill:#19122c;fill-rule:nonzero;" />
            <path d="M600.14,29.749l0,-25.242l-14.143,1.521l0,66.419l12.532,0l0.537,-4.296c2.775,3.759 6.982,5.818 11.727,5.818c12.352,0 19.066,-10.742 19.066,-25.422c0,-15.486 -5.371,-25.243 -17.545,-25.243c-4.833,0 -9.22,2.507 -12.174,6.445Zm6.983,33.926c-3.044,0 -5.192,-1.522 -6.983,-4.297l0,-20.051c2.059,-3.491 4.476,-5.549 7.699,-5.549c4.475,0 7.429,3.132 7.429,14.948c0,10.742 -3.133,14.949 -8.145,14.949Z"
                style="fill:#19122c;fill-rule:nonzero;" />
            <path d="M672.378,23.483c-7.609,0 -12.8,3.939 -16.202,12.085l-2.506,-10.652l-17.097,0l0,9.399l6.266,0l0,28.644l-6.266,0l0,9.488l29.808,0l0,-9.488l-9.399,0l0,-13.606c2.148,-7.072 6.355,-12.353 11.726,-13.248l0,8.683l8.951,0l2.596,-19.872c-2.238,-0.895 -4.655,-1.433 -7.877,-1.433Z"
                style="fill:#19122c;fill-rule:nonzero;" />
            <path d="M706.751,0.031c-4.923,0 -8.414,3.491 -8.414,7.967c0,4.565 3.491,7.966 8.414,7.966c4.923,0 8.325,-3.401 8.325,-7.966c0,-4.476 -3.402,-7.967 -8.325,-7.967Zm8.504,24.885l-27.123,0l0,9.667l12.98,0l0,28.197l-13.427,0l0,9.667l39.744,0l0,-9.667l-12.174,0l0,-37.864Z"
                style="fill:#19122c;fill-rule:nonzero;" />
            <path d="M776.393,58.752l0,-18.619c0,-10.921 -6.624,-16.829 -20.767,-16.829c-5.282,0 -12.353,1.254 -18.53,3.581l3.223,9.399c4.744,-1.611 10.025,-2.506 13.069,-2.506c6.087,0 9.399,2.327 9.399,7.34l0,1.7l-6.356,0c-14.68,0 -23.184,5.908 -23.184,16.202c0,8.773 6.266,14.949 16.113,14.949c5.908,0 11.905,-2.059 15.575,-6.445c2.238,3.939 6.087,5.729 11.637,6.266l2.954,-9.309c-2.238,-0.806 -3.133,-2.149 -3.133,-5.729Zm-22.2,5.102c-4.028,0 -6.355,-2.148 -6.355,-5.818c0,-4.655 3.581,-7.161 11.458,-7.161l3.491,0l0,7.787c-1.79,3.312 -5.55,5.192 -8.594,5.192Z"
                style="fill:#19122c;fill-rule:nonzero;" />
        </g>
        <path d="M303.15,63.944c0,5.46 4.386,10.025 9.936,10.025c5.55,0 9.936,-4.565 9.936,-10.025c0,-5.371 -4.386,-9.936 -9.936,-9.936c-5.55,0 -9.936,4.565 -9.936,9.936Z"
            style="fill:#e6364b;fill-rule:nonzero;" />
    </g>
</svg>